<svg width="195" height="49" viewBox="0 0 195 49" fill="none" xmlns="http://www.w3.org/2000/svg"><path fill-rule="evenodd" clip-rule="evenodd" d="M194.071 25.757a5.597 5.597 0 00-1.944-1.673 23.508 23.508 0 00-2.917-1.206 13.663 13.663 0 01-2.625-1.124 1.746 1.746 0 01-.828-1.29 1.788 1.788 0 01.488-1.465 1.87 1.87 0 011.312-.453 2.259 2.259 0 011.556.534c.409.37.648.903.658 1.467h4.874c-.088-1.81-.755-3.222-2.003-4.237-1.248-1.015-2.89-1.521-4.927-1.518-2 0-3.62.506-4.861 1.518-1.241 1.012-1.865 2.415-1.872 4.21 0 1.206.273 2.184.817 2.934a5.468 5.468 0 001.944 1.7c.944.458 1.919.843 2.917 1.152.649.19 1.287.42 1.911.685.418.18.802.437 1.132.759.306.309.472.736.46 1.179a1.635 1.635 0 01-.579 1.33 2.407 2.407 0 01-1.58.481 2.226 2.226 0 01-1.58-.561 2.466 2.466 0 01-.712-1.632h-4.786a5.723 5.723 0 001.016 3.236 5.94 5.94 0 002.567 2.024 9.177 9.177 0 003.646.685 7.706 7.706 0 003.61-.794 5.708 5.708 0 002.331-2.138 5.727 5.727 0 00.802-2.99c-.007-1.144-.282-2.082-.827-2.813zm-126.317-2.88c.995.337 1.97.74 2.916 1.207a5.599 5.599 0 011.945 1.67c.544.732.817 1.673.817 2.823a5.725 5.725 0 01-.802 2.99 5.714 5.714 0 01-2.334 2.138 7.7 7.7 0 01-3.607.795 9.166 9.166 0 01-3.646-.686 5.941 5.941 0 01-2.57-2.024 5.686 5.686 0 01-1.013-3.236h4.784a2.48 2.48 0 00.712 1.632c.44.388 1.004.588 1.58.562a2.412 2.412 0 001.582-.48c.387-.322.602-.817.579-1.332a1.615 1.615 0 00-.455-1.186 3.723 3.723 0 00-1.135-.759 17.367 17.367 0 00-1.908-.685 20.415 20.415 0 01-2.917-1.152 5.446 5.446 0 01-1.945-1.7c-.544-.75-.816-1.728-.816-2.934.008-1.795.63-3.198 1.869-4.21 1.238-1.012 2.858-1.518 4.861-1.518 2.04-.003 3.683.503 4.927 1.518 1.245 1.015 1.912 2.428 2.003 4.237h-4.873a2.025 2.025 0 00-.659-1.467 2.268 2.268 0 00-1.556-.534 1.88 1.88 0 00-1.317.453 1.783 1.783 0 00-.488 1.466 1.75 1.75 0 00.83 1.29c.84.467 1.723.843 2.636 1.123zm18.623-7.814h5.294l-7.165 9.434 7.428 9.816h-5.506l-6.217-8.5v8.5h-4.504v-19.25h4.504v8.444l6.166-8.444zm14.937 8.062l-3.583-8.062H92.62l6.403 12.887v6.363h4.504V27.95l6.402-12.887h-5.058l-3.556 8.062zm18.933-8.062l5.189 13.327 5.136-13.327h5.297v19.25h-4.507V22.769l-4.134 11.544h-3.637L119.43 22.74v11.572h-4.504v-19.25h5.321zm43.149 14.534l-4.584-14.534h-4.796l6.561 19.25h5.639l6.558-19.25h-4.767l-4.611 14.534zm15.272-14.534h-4.504V34.31h4.504V15.063zm-40.772 19.25l6.692-19.25h5.216l6.692 19.25h-4.77l-4.557-14.067-4.558 14.067h-4.715zM23.802 12.298c-.522-2.254-2.198-2.76-3.658-2.433-1.512.339-2.176 1.649-2.168 2.736.01 1.6.965 2.493 2.598 2.982.333.1.786.132 1.209.162.512.037.979.07 1.134.217.179.168.181.395.182.511v.016a60.3 60.3 0 010 .747c.75-.044 1.508-.032 2.249.03v-.793c.002-.116.004-.343.182-.511.155-.147.623-.18 1.135-.217.422-.03.875-.062 1.209-.162 1.633-.489 2.587-1.381 2.598-2.982.008-1.087-.656-2.397-2.168-2.736-1.46-.328-3.137.18-3.658 2.433-.046.195-.107.277-.155.32-.034.029-.233.034-.267.034-.035 0-.234-.005-.268-.035-.048-.042-.109-.124-.154-.319zM12.81 27.273c.682.659 1.377 1.33 1.422 1.62.017.11-.081.625-.24 1.455-.297 1.56-.808 4.232-1.164 7.44C6.503 31.923-.001 24.984-.001 23.501c0-2.663 21-22.945 24.225-22.945 3.225 0 24.225 20.282 24.225 22.945 0 1.313-5.1 6.904-10.658 12.238-2.234-2.969-3.14-6.099-3.933-8.834-.71-2.453-1.328-4.588-2.73-6.003-2.863-2.889-11.124-3.274-14.27.275-.879.993-1.311 2.188-1.561 2.88-.116.319-.193.53-.256.565-.276.15-1.016.326-1.75.501-.893.212-1.778.423-1.82.584-.056.217.634.884 1.34 1.565zm9.08-13.746a1.217 1.217 0 000-1.747 1.281 1.281 0 00-1.784 0 1.216 1.216 0 000 1.747 1.28 1.28 0 001.784 0zm6.451 0a1.217 1.217 0 000-1.747 1.281 1.281 0 00-1.784 0 1.217 1.217 0 000 1.747 1.28 1.28 0 001.784 0z" fill="#fff"/></svg>