<svg width="660" height="160" viewBox="0 0 660 160" fill="none" xmlns="http://www.w3.org/2000/svg"><path fill-rule="evenodd" clip-rule="evenodd" d="M657.192 84.158a18.883 18.883 0 00-6.604-5.514 81.251 81.251 0 00-9.907-3.98 47.153 47.153 0 01-8.916-3.704 5.75 5.75 0 01-2.811-4.253 5.789 5.789 0 011.655-4.833 6.478 6.478 0 014.458-1.493 7.816 7.816 0 015.284 1.76 6.598 6.598 0 012.237 4.84h16.552c-.297-5.969-2.564-10.627-6.802-13.975-4.238-3.349-9.816-5.017-16.734-5.006-6.792 0-12.295 1.669-16.511 5.006-4.216 3.337-6.335 7.965-6.357 13.882 0 3.977.925 7.203 2.774 9.678a18.42 18.42 0 006.604 5.607 71.516 71.516 0 009.907 3.796c2.203.63 4.37 1.384 6.489 2.26a12.746 12.746 0 013.847 2.504 5.24 5.24 0 011.56 3.887 5.312 5.312 0 01-1.965 4.389 8.362 8.362 0 01-5.366 1.585 7.702 7.702 0 01-5.366-1.852 8.034 8.034 0 01-2.419-5.382h-16.255a18.48 18.48 0 003.451 10.671 20.073 20.073 0 008.718 6.674 31.957 31.957 0 0012.383 2.261 26.82 26.82 0 0012.26-2.619 19.184 19.184 0 007.917-7.05 18.452 18.452 0 002.724-9.861c-.022-3.771-.958-6.864-2.807-9.278zm-429.024-9.494a82.442 82.442 0 019.907 3.98 18.887 18.887 0 016.604 5.506c1.849 2.414 2.774 5.517 2.774 9.31a18.461 18.461 0 01-2.724 9.862 19.214 19.214 0 01-7.926 7.05 26.795 26.795 0 01-12.251 2.619 31.939 31.939 0 01-12.383-2.261 20.094 20.094 0 01-8.726-6.674A18.374 18.374 0 01200 93.386h16.247a8.064 8.064 0 002.419 5.38 7.718 7.718 0 005.366 1.853 8.366 8.366 0 005.374-1.585 5.315 5.315 0 001.965-4.389 5.244 5.244 0 00-1.544-3.912 12.673 12.673 0 00-3.855-2.503 60.15 60.15 0 00-6.481-2.261 70.658 70.658 0 01-9.906-3.796 18.352 18.352 0 01-6.605-5.607c-1.849-2.475-2.774-5.7-2.774-9.678.028-5.918 2.144-10.545 6.349-13.882C210.76 49.669 216.263 48 223.066 48c6.929-.011 12.507 1.657 16.734 5.006 4.227 3.348 6.494 8.006 6.803 13.974H230.05a6.594 6.594 0 00-2.237-4.839 7.849 7.849 0 00-5.284-1.76 6.5 6.5 0 00-4.474 1.493 5.775 5.775 0 00-1.656 4.836 5.738 5.738 0 002.82 4.25 46.688 46.688 0 008.949 3.704zm63.254-25.771h17.98l-24.337 31.11 25.229 32.371h-18.699l-21.117-28.032v28.032H255.18V48.893h15.298V76.74l20.944-27.848zm50.73 26.589l-12.168-26.59h-17.362l21.745 42.5v20.982h15.298V91.391l21.745-42.498h-17.18l-12.078 26.589zm64.303-26.59l17.625 43.951 17.444-43.95h17.989v63.481h-15.306V74.305l-14.042 38.069h-12.351l-14.133-38.16v38.16h-15.298V48.893h18.072zm146.552 47.93l-15.57-47.93h-16.288l22.282 63.482h19.152l22.274-63.481h-16.189l-15.661 47.93zm51.87-47.93h-15.298v63.474h15.298V48.893zm-138.479 63.482l22.728-63.481h17.716l22.728 63.481h-16.198l-15.479-46.387-15.479 46.387h-16.016z" fill="#1D273D"/><path d="M48.474 98.791c-.312-2.051-9.78-9.613-9.401-11.102.26-1.023 10.074-2.622 12.155-3.78.688-.384 1.819-6.955 6.192-12.012 10.71-12.373 38.846-11.032 48.591-.958 10.094 10.428 8.257 32.094 22.689 51.726C147.64 104.069 165 84.577 165 80c0-9.288-71.511-80-82.497-80C71.516 0 0 70.712 0 80c0 5.168 22.152 29.357 43.693 49.804 1.857-17.132 4.952-29.896 4.78-31.013z" fill="#4C98FF"/><path d="M96.402 32.453c-4.974-1.14-10.683.625-12.46 8.483-.153.682-.361.966-.52 1.114-.114.102-.795.12-.912.12-.117 0-.795-.018-.909-.12-.166-.148-.372-.432-.52-1.114-1.774-7.858-7.483-9.634-12.457-8.483-5.15 1.18-7.41 5.75-7.384 9.54.036 5.58 3.287 8.691 8.847 10.397 2.516.781 7.016.385 7.983 1.32.636.614.613 1.453.618 1.838.005.386 0 1.664 0 2.604a52.534 52.534 0 017.658.104v-2.71c0-.367-.019-1.224.618-1.839.967-.934 5.47-.549 7.985-1.32 5.561-1.705 8.811-4.817 8.848-10.396.013-3.789-2.248-8.358-7.395-9.538zM74.559 45.211a4.294 4.294 0 01-7.338-3.043 4.313 4.313 0 012.654-3.98 4.29 4.29 0 014.684.936 4.307 4.307 0 01.932 4.698 4.309 4.309 0 01-.934 1.397l.002-.008zm21.97 0a4.295 4.295 0 01-7.338-3.043 4.313 4.313 0 012.654-3.98 4.29 4.29 0 014.684.936 4.307 4.307 0 01.931 4.698 4.309 4.309 0 01-.934 1.397l.003-.008zM82.503 160c5.573 0 26.719-18.192 46.205-37.335-14.432-19.632-12.595-41.298-22.692-51.726-9.752-10.074-37.888-11.415-48.59.958-4.38 5.057-5.504 11.628-6.193 12.011-2.079 1.159-11.898 2.758-12.155 3.78-.38 1.49 9.094 9.052 9.4 11.103.172 1.117-2.922 13.881-4.78 31.013C60.855 146.093 77.63 160 82.503 160z" fill="#fff"/></svg>